<svg xmlns="http://www.w3.org/2000/svg" xmlns:xlink="http://www.w3.org/1999/xlink" width="500" zoomAndPan="magnify" viewBox="0 0 375 374.999991" height="500" preserveAspectRatio="xMidYMid meet" version="1.0"><defs><clipPath id="61ab014345"><path d="M 3 0 L 375 0 L 375 375 L 3 375 Z M 3 0 " clip-rule="nonzero"/></clipPath><clipPath id="235c321606"><path d="M 69.75 0 L 308.25 0 C 345.113281 0 375 29.886719 375 66.75 L 375 308.25 C 375 345.113281 345.113281 375 308.25 375 L 69.75 375 C 32.882812 375 3 345.113281 3 308.25 L 3 66.75 C 3 29.886719 32.882812 0 69.75 0 Z M 69.75 0 " clip-rule="nonzero"/></clipPath><clipPath id="fcc468bb90"><path d="M 37.5 37.5 L 337.5 37.5 L 337.5 337.5 L 37.5 337.5 Z M 37.5 37.5 " clip-rule="nonzero"/></clipPath><clipPath id="6385c81d84"><path d="M 187.5 337.5 C 147.453125 337.5 109.742188 321.914062 81.445312 293.554688 C 53.085938 265.257812 37.5 227.546875 37.5 187.5 C 37.5 147.453125 53.085938 109.742188 81.445312 81.445312 C 109.742188 53.085938 147.453125 37.5 187.5 37.5 C 227.546875 37.5 265.257812 53.085938 293.554688 81.445312 C 321.914062 109.800781 337.5 147.453125 337.5 187.5 C 337.5 227.546875 321.914062 265.257812 293.554688 293.554688 C 265.257812 321.914062 227.546875 337.5 187.5 337.5 Z M 187.5 46.492188 C 149.851562 46.492188 114.417969 61.179688 87.800781 87.800781 C 61.179688 114.417969 46.492188 149.851562 46.492188 187.5 C 46.492188 225.148438 61.179688 260.582031 87.800781 287.199219 C 114.417969 313.820312 149.851562 328.507812 187.5 328.507812 C 225.148438 328.507812 260.582031 313.820312 287.199219 287.199219 C 313.820312 260.582031 328.507812 225.148438 328.507812 187.5 C 328.507812 149.851562 313.820312 114.417969 287.199219 87.800781 C 260.582031 61.179688 225.148438 46.492188 187.5 46.492188 Z M 187.5 46.492188 " clip-rule="nonzero"/></clipPath><clipPath id="b4c0f34388"><path d="M 37.5 37.5 L 341.25 37.5 L 341.25 309.75 L 37.5 309.75 Z M 37.5 37.5 " clip-rule="nonzero"/></clipPath></defs><g clip-path="url(#61ab014345)"><g clip-path="url(#235c321606)"><path fill="#114b5f" d="M 3 0 L 375 0 L 375 374.90625 L 3 374.90625 Z M 3 0 " fill-opacity="1" fill-rule="nonzero"/></g></g><g clip-path="url(#fcc468bb90)"><g clip-path="url(#6385c81d84)"><path fill="#114b5f" d="M 37.5 37.5 L 337.5 37.5 L 337.5 337.5 L 37.5 337.5 Z M 37.5 37.5 " fill-opacity="1" fill-rule="nonzero"/></g></g><g clip-path="url(#b4c0f34388)"><path fill="#998f00" d="M 181.632812 213.996094 L 188.71875 205.949219 C 192.082031 210.035156 196.765625 212.675781 202.289062 213.398438 L 202.289062 253.152344 L 163.613281 275.253906 L 125.058594 297.59375 L 86.503906 275.375 L 47.949219 253.152344 L 47.949219 164.03125 L 69.207031 151.660156 L 69.207031 139.648438 L 37.5 158.027344 L 37.5 259.160156 L 125.058594 309.726562 L 212.617188 259.160156 L 212.617188 211.957031 C 220.1875 208.832031 225.351562 201.386719 225.351562 192.738281 C 225.351562 181.328125 215.980469 171.960938 204.570312 171.960938 C 197.84375 171.960938 191.839844 175.082031 187.996094 180.007812 L 180.789062 171.71875 C 185.953125 168.234375 189.199219 162.589844 189.796875 156.226562 L 215.019531 141.570312 L 253.578125 119.351562 L 292.132812 141.570312 L 330.6875 163.792969 L 330.6875 252.914062 L 292.011719 275.253906 L 253.457031 297.472656 L 214.902344 275.253906 L 208.894531 271.890625 L 198.445312 277.894531 L 253.457031 309.605469 L 341.015625 259.039062 L 341.015625 157.90625 L 253.457031 107.339844 L 187.515625 145.414062 C 184.152344 138.570312 177.066406 133.765625 168.898438 133.765625 C 157.488281 133.765625 148.121094 143.132812 148.121094 154.542969 C 148.121094 165.59375 156.886719 174.84375 168.058594 175.324219 L 168.058594 209.792969 C 160.613281 210.152344 154.367188 214.238281 150.761719 220.363281 L 124.820312 205.351562 L 86.265625 183.128906 L 86.265625 94.007812 L 163.375 49.570312 L 240.484375 94.007812 L 240.484375 106.859375 L 250.933594 100.855469 L 250.933594 88.003906 L 163.496094 37.675781 L 75.933594 88.242188 L 75.933594 189.375 L 148.121094 231.171875 C 148.242188 242.582031 157.488281 251.832031 168.898438 251.832031 C 180.308594 251.832031 189.679688 242.464844 189.679688 231.054688 C 189.917969 223.847656 186.554688 217.839844 181.632812 213.996094 Z M 187.636719 204.390625 L 180.191406 212.796875 C 177.1875 210.875 173.824219 209.792969 170.101562 209.671875 L 170.101562 175.324219 C 173.464844 175.203125 176.585938 174.242188 179.46875 172.679688 L 187.277344 181.449219 C 185.113281 184.570312 184.152344 188.535156 184.152344 192.5 C 183.914062 197.0625 185.355469 201.144531 187.636719 204.390625 Z M 187.636719 204.390625 " fill-opacity="1" fill-rule="evenodd"/></g></svg>