<svg xmlns="http://www.w3.org/2000/svg" xmlns:xlink="http://www.w3.org/1999/xlink" width="200" zoomAndPan="magnify" viewBox="0 0 150 60" height="80" preserveAspectRatio="xMidYMid meet" version="1.0"><defs><g/><clipPath id="325c42f362"><path d="M 4.308594 10.695312 L 36.558594 10.695312 L 36.558594 39.945312 L 4.308594 39.945312 Z M 4.308594 10.695312 " clip-rule="nonzero"/></clipPath></defs><g fill="#114b5f" fill-opacity="1"><g transform="translate(52.944452, 26.17082)"><g><path d="M 5.28125 0.203125 C 4.351562 0.203125 3.453125 0.078125 2.578125 -0.171875 C 1.703125 -0.429688 1 -0.765625 0.46875 -1.171875 L 1.40625 -3.21875 C 1.90625 -2.851562 2.503906 -2.554688 3.203125 -2.328125 C 3.898438 -2.109375 4.597656 -2 5.296875 -2 C 6.078125 -2 6.648438 -2.113281 7.015625 -2.34375 C 7.390625 -2.570312 7.578125 -2.878906 7.578125 -3.265625 C 7.578125 -3.546875 7.46875 -3.773438 7.25 -3.953125 C 7.03125 -4.140625 6.75 -4.289062 6.40625 -4.40625 C 6.0625 -4.519531 5.597656 -4.644531 5.015625 -4.78125 C 4.117188 -4.988281 3.378906 -5.203125 2.796875 -5.421875 C 2.222656 -5.640625 1.726562 -5.984375 1.3125 -6.453125 C 0.90625 -6.921875 0.703125 -7.550781 0.703125 -8.34375 C 0.703125 -9.03125 0.890625 -9.648438 1.265625 -10.203125 C 1.640625 -10.765625 2.203125 -11.207031 2.953125 -11.53125 C 3.703125 -11.863281 4.613281 -12.03125 5.6875 -12.03125 C 6.445312 -12.03125 7.1875 -11.9375 7.90625 -11.75 C 8.625 -11.570312 9.253906 -11.316406 9.796875 -10.984375 L 8.953125 -8.90625 C 7.859375 -9.519531 6.765625 -9.828125 5.671875 -9.828125 C 4.910156 -9.828125 4.34375 -9.703125 3.96875 -9.453125 C 3.601562 -9.210938 3.421875 -8.890625 3.421875 -8.484375 C 3.421875 -8.078125 3.632812 -7.773438 4.0625 -7.578125 C 4.488281 -7.378906 5.132812 -7.1875 6 -7 C 6.894531 -6.78125 7.628906 -6.5625 8.203125 -6.34375 C 8.773438 -6.132812 9.265625 -5.796875 9.671875 -5.328125 C 10.085938 -4.867188 10.296875 -4.25 10.296875 -3.46875 C 10.296875 -2.789062 10.109375 -2.171875 9.734375 -1.609375 C 9.359375 -1.054688 8.789062 -0.613281 8.03125 -0.28125 C 7.28125 0.0390625 6.363281 0.203125 5.28125 0.203125 Z M 5.28125 0.203125 "/></g></g></g><g fill="#114b5f" fill-opacity="1"><g transform="translate(67.099833, 26.17082)"><g><path d="M 12.25 -11.828125 L 12.25 0 L 10 0 L 4.109375 -7.171875 L 4.109375 0 L 1.40625 0 L 1.40625 -11.828125 L 3.671875 -11.828125 L 9.546875 -4.640625 L 9.546875 -11.828125 Z M 12.25 -11.828125 "/></g></g></g><g fill="#114b5f" fill-opacity="1"><g transform="translate(84.126574, 26.17082)"><g><path d="M 10.078125 -6.140625 C 10.753906 -5.929688 11.285156 -5.578125 11.671875 -5.078125 C 12.054688 -4.578125 12.25 -3.957031 12.25 -3.21875 C 12.25 -2.1875 11.84375 -1.390625 11.03125 -0.828125 C 10.226562 -0.273438 9.054688 0 7.515625 0 L 1.40625 0 L 1.40625 -11.828125 L 7.171875 -11.828125 C 8.617188 -11.828125 9.726562 -11.550781 10.5 -11 C 11.269531 -10.445312 11.65625 -9.695312 11.65625 -8.75 C 11.65625 -8.175781 11.515625 -7.660156 11.234375 -7.203125 C 10.960938 -6.753906 10.578125 -6.398438 10.078125 -6.140625 Z M 4.125 -9.765625 L 4.125 -6.96875 L 6.84375 -6.96875 C 7.519531 -6.96875 8.03125 -7.085938 8.375 -7.328125 C 8.726562 -7.566406 8.90625 -7.914062 8.90625 -8.375 C 8.90625 -8.832031 8.726562 -9.175781 8.375 -9.40625 C 8.03125 -9.644531 7.519531 -9.765625 6.84375 -9.765625 Z M 7.3125 -2.0625 C 8.03125 -2.0625 8.570312 -2.175781 8.9375 -2.40625 C 9.3125 -2.644531 9.5 -3.015625 9.5 -3.515625 C 9.5 -4.492188 8.769531 -4.984375 7.3125 -4.984375 L 4.125 -4.984375 L 4.125 -2.0625 Z M 7.3125 -2.0625 "/></g></g></g><path stroke-linecap="round" transform="matrix(0, 0.75, -0.75, 0, 44.148224, 10.69534)" fill="none" stroke-linejoin="miter" d="M 0.999963 0.999715 L 37.85934 0.999715 " stroke="#998f00" stroke-width="2" stroke-opacity="1" stroke-miterlimit="4"/><g clip-path="url(#325c42f362)"><path fill="#998f00" d="M 19.730469 29.578125 L 20.488281 28.71875 C 20.847656 29.15625 21.347656 29.4375 21.941406 29.515625 L 21.941406 33.769531 L 17.800781 36.132812 L 13.675781 38.523438 L 9.554688 36.144531 L 5.429688 33.769531 L 5.429688 24.234375 L 7.703125 22.910156 L 7.703125 21.625 L 4.308594 23.589844 L 4.308594 34.410156 L 13.675781 39.820312 L 23.046875 34.410156 L 23.046875 29.359375 C 23.855469 29.027344 24.40625 28.230469 24.40625 27.304688 C 24.40625 26.082031 23.40625 25.082031 22.183594 25.082031 C 21.464844 25.082031 20.824219 25.414062 20.410156 25.941406 L 19.640625 25.054688 C 20.191406 24.683594 20.539062 24.078125 20.605469 23.398438 L 23.300781 21.828125 L 27.425781 19.453125 L 31.550781 21.828125 L 35.675781 24.207031 L 35.675781 33.742188 L 31.539062 36.132812 L 27.414062 38.507812 L 23.289062 36.132812 L 22.648438 35.773438 L 21.527344 36.414062 L 27.414062 39.808594 L 36.78125 34.398438 L 36.78125 23.578125 L 27.414062 18.167969 L 20.359375 22.242188 C 20 21.507812 19.242188 20.996094 18.367188 20.996094 C 17.148438 20.996094 16.144531 21.996094 16.144531 23.21875 C 16.144531 24.398438 17.082031 25.390625 18.277344 25.441406 L 18.277344 29.128906 C 17.480469 29.167969 16.8125 29.605469 16.425781 30.257812 L 13.652344 28.652344 L 9.527344 26.277344 L 9.527344 16.742188 L 13.652344 14.363281 L 17.777344 11.988281 L 21.902344 14.363281 L 26.027344 16.742188 L 26.027344 18.117188 L 27.144531 17.472656 L 27.144531 16.097656 L 17.789062 10.714844 L 8.421875 16.125 L 8.421875 26.945312 L 16.144531 31.417969 C 16.15625 32.636719 17.148438 33.625 18.367188 33.625 C 19.589844 33.625 20.589844 32.625 20.589844 31.402344 C 20.617188 30.632812 20.257812 29.988281 19.730469 29.578125 Z M 20.371094 28.550781 L 19.574219 29.449219 C 19.253906 29.246094 18.894531 29.128906 18.496094 29.117188 L 18.496094 25.441406 C 18.855469 25.429688 19.191406 25.324219 19.5 25.15625 L 20.335938 26.097656 C 20.101562 26.429688 20 26.855469 20 27.277344 C 19.972656 27.765625 20.128906 28.203125 20.371094 28.550781 Z M 20.371094 28.550781 " fill-opacity="1" fill-rule="evenodd"/></g><g fill="#114b5f" fill-opacity="1"><g transform="translate(57.861135, 37.087548)"><g><path d="M 1.75 -4.34375 L 0.03125 -4.34375 L 0.03125 -5.359375 L 4.703125 -5.359375 L 4.703125 -4.34375 L 2.984375 -4.34375 L 2.984375 0 L 1.75 0 Z M 1.75 -4.34375 "/></g></g></g><g fill="#114b5f" fill-opacity="1"><g transform="translate(66.793665, 37.087548)"><g><path d="M 4.78125 -1 L 4.78125 0 L 0.640625 0 L 0.640625 -5.359375 L 4.6875 -5.359375 L 4.6875 -4.359375 L 1.875 -4.359375 L 1.875 -3.203125 L 4.359375 -3.203125 L 4.359375 -2.234375 L 1.875 -2.234375 L 1.875 -1 Z M 4.78125 -1 "/></g></g></g><g fill="#114b5f" fill-opacity="1"><g transform="translate(76.132076, 37.087548)"><g><path d="M 3.203125 0.09375 C 2.648438 0.09375 2.15625 -0.0234375 1.71875 -0.265625 C 1.28125 -0.503906 0.929688 -0.832031 0.671875 -1.25 C 0.421875 -1.675781 0.296875 -2.15625 0.296875 -2.6875 C 0.296875 -3.207031 0.421875 -3.675781 0.671875 -4.09375 C 0.929688 -4.519531 1.28125 -4.851562 1.71875 -5.09375 C 2.15625 -5.332031 2.648438 -5.453125 3.203125 -5.453125 C 3.671875 -5.453125 4.09375 -5.367188 4.46875 -5.203125 C 4.84375 -5.046875 5.15625 -4.8125 5.40625 -4.5 L 4.609375 -3.765625 C 4.253906 -4.179688 3.804688 -4.390625 3.265625 -4.390625 C 2.929688 -4.390625 2.632812 -4.316406 2.375 -4.171875 C 2.113281 -4.023438 1.910156 -3.820312 1.765625 -3.5625 C 1.617188 -3.300781 1.546875 -3.007812 1.546875 -2.6875 C 1.546875 -2.351562 1.617188 -2.054688 1.765625 -1.796875 C 1.910156 -1.535156 2.113281 -1.332031 2.375 -1.1875 C 2.632812 -1.039062 2.929688 -0.96875 3.265625 -0.96875 C 3.804688 -0.96875 4.253906 -1.175781 4.609375 -1.59375 L 5.40625 -0.859375 C 5.15625 -0.546875 4.835938 -0.304688 4.453125 -0.140625 C 4.078125 0.015625 3.660156 0.09375 3.203125 0.09375 Z M 3.203125 0.09375 "/></g></g></g><g fill="#114b5f" fill-opacity="1"><g transform="translate(85.945296, 37.087548)"><g><path d="M 5.546875 -5.359375 L 5.546875 0 L 4.3125 0 L 4.3125 -2.203125 L 1.875 -2.203125 L 1.875 0 L 0.640625 0 L 0.640625 -5.359375 L 1.875 -5.359375 L 1.875 -3.25 L 4.3125 -3.25 L 4.3125 -5.359375 Z M 5.546875 -5.359375 "/></g></g></g></svg>